<?xml version="1.0" standalone="no"?>
<!DOCTYPE svg PUBLIC "-//W3C//DTD SVG 20010904//EN"
 "http://www.w3.org/TR/2001/REC-SVG-20010904/DTD/svg10.dtd">
<svg version="1.0" xmlns="http://www.w3.org/2000/svg"
 width="790.000000pt" height="790.000000pt" viewBox="0 0 790.000000 790.000000"
 preserveAspectRatio="xMidYMid meet">
<metadata>
Created by potrace 1.14, written by Peter Selinger 2001-2017
</metadata>
<g transform="translate(0.000000,790.000000) scale(0.100000,-0.100000)"
fill="#000000" stroke="none">
<path d="M3719 7896 c-2 -2 -49 -7 -104 -10 -55 -4 -109 -9 -120 -11 -11 -3
-40 -7 -65 -10 -61 -7 -102 -13 -190 -30 -41 -8 -86 -16 -100 -19 -37 -6 -153
-35 -255 -63 -397 -111 -784 -288 -1125 -516 -77 -52 -256 -182 -276 -201 -6
-6 -27 -24 -47 -39 -109 -86 -391 -359 -467 -454 -25 -31 -54 -65 -65 -77 -67
-71 -299 -404 -370 -531 -124 -223 -194 -367 -265 -548 -108 -276 -207 -663
-236 -922 -3 -33 -8 -69 -10 -80 -25 -128 -24 -831 0 -875 2 -3 7 -34 10 -70
8 -76 24 -178 41 -250 3 -14 8 -41 11 -60 22 -134 113 -432 196 -643 45 -116
197 -431 250 -517 11 -19 28 -47 37 -62 43 -72 99 -159 138 -213 24 -33 51
-71 60 -84 25 -34 135 -175 142 -181 4 -3 19 -23 36 -45 85 -114 438 -447 610
-575 33 -25 62 -48 65 -51 11 -12 300 -198 377 -242 404 -231 951 -421 1358
-472 54 -6 125 -16 154 -20 127 -20 595 -28 756 -12 140 13 171 16 201 21 16
3 52 8 79 11 28 4 57 8 65 10 8 2 31 7 50 10 65 10 94 17 252 56 221 54 402
116 653 224 89 38 297 146 380 196 17 10 44 26 60 35 32 18 262 171 282 189
17 14 31 25 78 60 148 110 462 407 570 538 22 27 53 63 68 80 15 17 67 84 115
149 253 342 456 734 587 1133 67 205 141 529 160 705 4 36 9 74 11 85 25 133
24 799 0 877 -3 7 -7 38 -10 68 -3 30 -7 64 -10 75 -2 11 -7 43 -10 70 -4 28
-9 57 -11 65 -2 8 -6 26 -9 40 -9 53 -39 180 -66 280 -134 496 -373 974 -690
1381 -124 159 -158 197 -330 370 -437 439 -952 759 -1537 954 -132 44 -398
115 -493 131 -25 4 -47 8 -50 9 -17 4 -90 16 -115 20 -16 2 -43 6 -60 9 -16 2
-59 8 -95 12 -36 4 -76 9 -90 10 -36 5 -577 14 -581 10z"/>
</g>
</svg>
