<svg xmlns="http://www.w3.org/2000/svg" width="60" height="60" viewBox="0 0 40 40" fill="none">
<path d="M5.4707 9.32808C5.23 9.65892 4.76365 9.73396 4.42918 9.49594C4.09477 9.25785 4.01883 8.79658 4.25954 8.46575C6.09978 5.93446 8.50262 3.91768 11.235 2.53367C13.9699 1.1483 17.0306 0.396484 20.1836 0.396484C21.7147 0.396484 23.2363 0.573907 24.7173 0.921405C26.1933 1.26767 27.6331 1.78582 29.0056 2.46858C29.374 2.65232 29.522 3.09681 29.3362 3.46123C29.1505 3.82565 28.7011 3.97203 28.3327 3.78829C27.0733 3.16189 25.7436 2.68435 24.3719 2.36263C23.0052 2.04188 21.5995 1.87818 20.1836 1.87818C17.262 1.87818 14.4337 2.5709 11.9137 3.84745C9.3909 5.12523 7.17151 6.98854 5.4707 9.32808Z" fill="url(#paint0_linear_277_2838)"/>
<path d="M6.99113 17.3812C6.91849 17.7824 6.53065 18.0492 6.12511 17.9774C5.7195 17.9056 5.44971 17.522 5.52229 17.1208C6.16525 13.6221 8.03023 10.6006 10.6351 8.4542C13.241 6.30692 16.5847 5.03447 20.1835 5.03447C24.1183 5.03447 27.7157 6.54657 30.3907 9.02859C33.064 11.509 34.814 14.9601 35.0566 18.8397C35.0807 19.2473 34.7664 19.5971 34.3543 19.621C33.9423 19.645 33.5886 19.334 33.5644 18.9264C33.3465 15.4398 31.7719 12.3368 29.3667 10.1051C26.9631 7.87492 23.7269 6.51611 20.1835 6.51611C16.9394 6.51611 13.93 7.65943 11.5888 9.58853C9.24626 11.5188 7.56914 14.2356 6.99113 17.3812Z" fill="url(#paint1_linear_277_2838)"/>
<path d="M2.42923 24.063C2.52767 24.4593 2.28276 24.8598 1.88208 24.9572C1.48141 25.0546 1.07646 24.8123 0.977955 24.416C0.78364 23.6459 0.638148 22.8717 0.542076 22.0981C0.444886 21.3159 0.395996 20.5295 0.395996 19.7437C0.395996 18.1853 0.588533 16.6338 0.965122 15.1227C1.33987 13.6191 1.89952 12.1572 2.63533 10.7704C2.82603 10.4093 3.27671 10.2693 3.64178 10.4579C4.00692 10.6464 4.1484 11.0922 3.95777 11.4533C3.28046 12.7299 2.7641 14.0809 2.41634 15.4757C2.07061 16.8627 1.89393 18.2956 1.89393 19.7437C1.89393 20.4732 1.939 21.1995 2.0283 21.9187C2.11865 22.6463 2.25255 23.3626 2.42923 24.063Z" fill="url(#paint2_linear_277_2838)"/>
<path d="M30.4263 5.1375C30.0886 4.90267 30.0074 4.44127 30.2449 4.10724C30.4824 3.77328 30.9489 3.69296 31.2865 3.92786C33.8934 5.74007 35.972 8.12075 37.3982 10.8342C38.8256 13.5494 39.6011 16.5978 39.6011 19.7437C39.6011 19.8088 39.5996 19.7577 39.5967 19.9816L39.5924 20.2197C39.5828 20.6272 39.2408 20.9499 38.8287 20.9403C38.4167 20.9307 38.0906 20.5925 38.1002 20.1849C38.1017 20.1117 38.1045 20.0374 38.1045 19.9643C38.1054 19.893 38.1031 19.9618 38.1031 19.7437C38.1031 16.8378 37.3874 14.0231 36.0701 11.5172C34.7519 9.00945 32.8325 6.81023 30.4263 5.1375Z" fill="url(#paint3_linear_277_2838)"/>
<path d="M4.54412 22.0657C4.71758 23.1436 4.77364 24.0849 4.6194 24.9707C4.45594 25.9099 4.0662 26.7636 3.34934 27.6105C3.08442 27.9237 2.61274 27.9651 2.29603 27.703C1.97939 27.441 1.93754 26.9744 2.20246 26.6612C2.73724 26.0294 3.02625 25.4029 3.14482 24.7218C3.26827 24.0124 3.218 23.222 3.06994 22.2996C3.0656 22.2808 3.06204 22.2617 3.05915 22.2423C2.99749 21.8305 2.9509 21.4141 2.91965 20.9945C2.88793 20.57 2.87207 20.1526 2.87207 19.7436C2.87207 15.0272 4.81095 10.7553 7.94553 7.66189C11.0784 4.57001 15.4055 2.65744 20.1836 2.65744C20.5741 2.65744 20.9759 2.67163 21.3874 2.70001C21.7853 2.72734 22.1862 2.76913 22.5886 2.82484C22.9974 2.88075 23.283 3.25396 23.2264 3.65828C23.1699 4.06253 22.7927 4.34508 22.3839 4.28917C22.0236 4.23924 21.6579 4.20143 21.288 4.17598C20.9318 4.15144 20.5633 4.13914 20.1836 4.13914C15.8144 4.13914 11.86 5.88574 8.9987 8.70953C6.13891 11.5318 4.37007 15.4329 4.37007 19.7436C4.37007 20.1349 4.38402 20.5176 4.41179 20.8905C4.43995 21.2685 4.48259 21.6482 4.53951 22.0282C4.54142 22.0407 4.54293 22.0532 4.54412 22.0657Z" fill="url(#paint4_linear_277_2838)"/>
<path d="M37.2335 16.7932C37.5486 18.4616 37.7351 20.453 37.8073 22.4569C37.8852 24.6232 37.829 26.8104 37.6571 28.6201C37.62 29.026 37.2571 29.3253 36.8467 29.2886C36.4363 29.2518 36.1338 28.8928 36.1709 28.487C36.3369 26.7389 36.3909 24.6176 36.3151 22.5091C36.248 20.6446 36.0787 18.7946 35.795 17.2294L35.7815 17.1667C35.2897 14.2667 33.9935 11.6266 32.11 9.49307C30.2259 7.35862 27.7527 5.7291 24.9081 4.85043C24.5139 4.72905 24.2939 4.31425 24.4167 3.92438C24.5394 3.53451 24.9587 3.31692 25.3529 3.43831C28.4638 4.39925 31.1701 6.18315 33.2334 8.52068C35.2692 10.8268 36.6788 13.6707 37.2335 16.7932Z" fill="url(#paint5_linear_277_2838)"/>
<path d="M4.38451 29.9039C4.06464 30.1628 3.59303 30.1161 3.33127 29.7997C3.06951 29.4833 3.11675 29.0168 3.43662 28.7579C4.34588 28.022 4.93718 27.1483 5.27666 26.1465C5.62706 25.1123 5.71945 23.9231 5.6218 22.5942C5.61976 22.5663 5.61949 22.5385 5.62055 22.511C5.60916 22.2181 5.53053 21.917 5.45229 21.6172C5.33898 21.1825 5.22592 20.7492 5.23856 20.2249C5.2483 19.8173 5.59021 19.4947 6.00226 19.5043C6.41432 19.5139 6.74044 19.8521 6.73077 20.2596C6.72301 20.5831 6.81019 20.9172 6.89758 21.2525C6.99753 21.6353 7.09788 22.0196 7.11256 22.4734L7.11394 22.49C7.22514 24.0016 7.11157 25.3794 6.69273 26.6153C6.26298 27.8833 5.52099 28.9841 4.38451 29.9039Z" fill="url(#paint6_linear_277_2838)"/>
<path d="M33.9756 21.7918C33.953 21.3843 34.2686 21.0357 34.6807 21.0134C35.0928 20.9911 35.4452 21.3033 35.4678 21.7109C35.5825 23.7107 35.5883 25.5783 35.4236 27.441C35.2581 29.3146 34.9205 31.1917 34.3492 33.2029C34.2377 33.5961 33.8251 33.8254 33.4276 33.7152C33.0302 33.6049 32.7983 33.1967 32.9097 32.8036C33.452 30.8946 33.7731 29.1056 33.9314 27.3136C34.0908 25.5107 34.0858 23.712 33.9756 21.7918Z" fill="url(#paint7_linear_277_2838)"/>
<path d="M15.5165 9.71559C15.1432 9.88814 14.6991 9.72874 14.5246 9.35957C14.3501 8.99046 14.5113 8.55106 14.8845 8.37852C17.083 7.3616 19.5821 7.07248 21.9259 7.40071C24.342 7.7391 26.6077 8.73382 28.2281 10.2644C28.5269 10.5456 28.5387 11.0134 28.2544 11.3091C27.9701 11.6047 27.4971 11.6164 27.1982 11.3351C25.8053 10.0194 23.8355 9.16111 21.7211 8.86497C19.6444 8.57423 17.4413 8.82527 15.5165 9.71559Z" fill="url(#paint8_linear_277_2838)"/>
<path d="M5.45544 32.0047C5.10806 32.2252 4.64554 32.1255 4.4226 31.7819C4.19972 31.4384 4.3006 30.9808 4.6479 30.7604C6.04819 29.8739 6.94771 28.7629 7.43807 27.3928C7.94324 25.9811 8.03227 24.2717 7.79867 22.2345C7.32936 19.5368 7.55158 17.3104 8.31509 15.3632C9.07715 13.4195 10.3711 11.7814 12.0497 10.2466C12.3518 9.9702 12.8235 9.98843 13.1029 10.2872C13.3824 10.586 13.3639 11.0527 13.0619 11.329C11.5435 12.7174 10.3793 14.1829 9.7078 15.8956C9.03971 17.5996 8.85145 19.5769 9.27679 22.0061L9.28258 22.0467C9.54441 24.312 9.43598 26.2431 8.84836 27.8847C8.24435 29.5722 7.15032 30.9318 5.45544 32.0047Z" fill="url(#paint9_linear_277_2838)"/>
<path d="M30.4601 28.9852C30.4198 29.3911 30.0543 29.6878 29.6439 29.6479C29.2336 29.608 28.9336 29.2464 28.9739 28.8406C29.1465 27.1482 29.2789 25.1643 29.2821 23.2073C29.2846 21.6418 29.204 20.0847 28.994 18.6974C28.9906 18.6745 28.9884 18.6516 28.9872 18.6289C28.6981 16.4583 27.6195 14.5579 26.0591 13.1966C24.4899 11.8276 22.4293 11.0061 20.1916 11.0061C17.7425 11.0061 15.525 11.9881 13.9202 13.5754C12.3154 15.1628 11.3226 17.3561 11.3226 19.7785L11.3227 19.9981L11.3317 20.2059C11.3804 20.9388 11.524 21.5496 11.6543 22.1038C11.9095 23.1895 12.1213 24.0906 11.6781 25.3735C11.5457 25.7603 11.1212 25.9676 10.7302 25.8366C10.3392 25.7056 10.1296 25.2857 10.262 24.899C10.5683 24.0124 10.4001 23.2963 10.1972 22.4337C10.0541 21.8248 9.89634 21.1537 9.83949 20.2986L9.83047 20.0328L9.82462 19.7785C9.82462 16.947 10.985 14.3834 12.861 12.5277C14.7371 10.6722 17.3289 9.52437 20.1916 9.52437C22.8012 9.52437 25.2094 10.4869 27.048 12.0911C28.8679 13.6787 30.1265 15.898 30.4658 18.4359L30.4744 18.4833C30.6931 19.9276 30.7769 21.5601 30.7743 23.2073C30.771 25.2286 30.636 27.2603 30.4601 28.9852Z" fill="url(#paint10_linear_277_2838)"/>
<path d="M29.1145 13.1861C28.8917 12.8426 28.9925 12.385 29.3398 12.1645C29.6872 11.944 30.1497 12.0438 30.3726 12.3873C32.2588 15.2742 33.1448 18.8346 33.2363 22.7005C33.3355 26.8887 32.4987 31.4416 30.9928 35.8769C30.862 36.2636 30.4388 36.4723 30.0478 36.3429C29.6568 36.2134 29.4459 35.7948 29.5767 35.4081C31.0308 31.1253 31.8392 26.7431 31.7441 22.7293C31.6589 19.1319 30.8453 15.8351 29.1145 13.1861Z" fill="url(#paint11_linear_277_2838)"/>
<path d="M28.3858 31.4893C28.494 31.0945 28.9054 30.8613 29.3044 30.9684C29.7035 31.0755 29.9393 31.4824 29.8311 31.8771C29.5496 32.9019 29.2295 33.8946 28.863 34.8476C28.4969 35.7993 28.0831 36.7107 27.6132 37.5742C27.4178 37.9337 26.9644 38.0685 26.6009 37.8751C26.2374 37.6818 26.1012 37.2334 26.2966 36.8738C26.7311 36.0752 27.1181 35.2214 27.4645 34.3209C27.8103 33.4218 28.1151 32.4749 28.3858 31.4893Z" fill="url(#paint12_linear_277_2838)"/>
<path d="M16.2427 30.3848C16.4059 30.0109 16.8448 29.8385 17.2228 30C17.6008 30.1614 17.775 30.5955 17.6118 30.9694C17.1004 32.1398 16.5177 33.2823 15.8312 34.3841C15.1381 35.4967 14.342 36.566 13.4111 37.5779C13.1333 37.88 12.6603 37.9019 12.3549 37.6271C12.0495 37.3524 12.0274 36.8845 12.3052 36.5824C13.1783 35.6334 13.9199 34.6383 14.5616 33.6084C15.21 32.5678 15.76 31.4892 16.2427 30.3848Z" fill="url(#paint13_linear_277_2838)"/>
<path d="M9.65168 27.7653C9.80348 27.3849 10.2385 27.1984 10.6231 27.3486C11.0076 27.4987 11.1962 27.929 11.0444 28.3094C10.625 29.3575 10.1053 30.3366 9.4665 31.2332C8.82539 32.1332 8.0659 32.946 7.1698 33.6574C6.84835 33.9131 6.37799 33.8626 6.11945 33.5446C5.86084 33.2266 5.91197 32.7614 6.23348 32.5056C7.01601 31.8844 7.68069 31.1724 8.24356 30.3824C8.80868 29.5891 9.27285 28.7121 9.65168 27.7653Z" fill="url(#paint14_linear_277_2838)"/>
<path d="M23.5838 14.4594C23.1976 14.314 23.0038 13.8863 23.1508 13.5043C23.2977 13.1224 23.73 12.9306 24.1162 13.076C24.3836 13.1774 24.6417 13.3053 24.8896 13.4576C27.0044 14.7571 28.2845 17.8686 28.5928 21.7193C28.8909 25.4426 28.2974 29.9054 26.6824 34.0717C26.0815 35.6217 25.338 37.1342 24.4452 38.5555C24.2271 38.9022 23.7659 39.0085 23.4154 38.7928C23.0648 38.5771 22.9574 38.1209 23.1755 37.7742C24.0145 36.4386 24.7152 35.0117 25.2838 33.545C26.8181 29.5872 27.3826 25.3574 27.1007 21.8351C26.8287 18.4401 25.7896 15.752 24.0997 14.7135C23.9353 14.6125 23.7632 14.5274 23.5838 14.4594Z" fill="url(#paint15_linear_277_2838)"/>
<path d="M24.5131 26.5917C24.5761 26.1889 24.9574 25.9129 25.3646 25.9753C25.7717 26.0376 26.0508 26.4147 25.9877 26.8174C25.6481 28.9901 25.1288 31.0888 24.3937 33.098C23.6542 35.1193 22.6985 37.049 21.4904 38.8707C21.2642 39.2126 20.8003 39.3085 20.4546 39.0848C20.1089 38.8611 20.0119 38.4022 20.2381 38.0603C21.3854 36.3301 22.291 34.5032 22.9894 32.5944C23.6922 30.6735 24.1886 28.6677 24.5131 26.5917Z" fill="url(#paint16_linear_277_2838)"/>
<path d="M19.4478 20.0984C19.3379 19.7052 19.5711 19.2983 19.9685 19.1897C20.366 19.081 20.7774 19.3117 20.8872 19.7048C21.7079 22.6193 21.4958 26.1698 20.5982 29.4995C19.6519 33.0103 17.9354 36.3046 15.8582 38.3721C15.5674 38.6614 15.0944 38.6627 14.802 38.3751C14.5096 38.0874 14.5082 37.6197 14.799 37.3304C16.6933 35.4449 18.2706 32.3965 19.1529 29.1234C19.9884 26.0242 20.1941 22.7485 19.4478 20.0984Z" fill="url(#paint17_linear_277_2838)"/>
<path d="M14.992 21.6922C14.9597 21.2847 15.2676 20.9282 15.6796 20.8964C16.0916 20.8644 16.4519 21.1689 16.4842 21.5765C16.725 24.576 16.4637 27.3462 15.6072 29.8298C14.7425 32.3371 13.276 34.5419 11.114 36.3843C10.8022 36.6512 10.3305 36.6175 10.0607 36.3091C9.7908 36.0007 9.82489 35.5342 10.1367 35.2673C12.0883 33.6042 13.4115 31.6156 14.1911 29.3553C14.979 27.0709 15.2172 24.4976 14.992 21.6922Z" fill="url(#paint18_linear_277_2838)"/>
<path d="M15.6256 13.3842C16.9518 12.4747 18.5502 11.9564 20.2351 11.9564C20.3194 11.9564 20.4362 11.9596 20.5865 11.9661C20.7352 11.9725 20.8529 11.9794 20.9379 11.9867C21.35 12.0219 21.6552 12.3808 21.6196 12.7884C21.584 13.196 21.2211 13.4978 20.8091 13.4626C20.6819 13.4517 20.5865 13.4448 20.5222 13.4421C20.4599 13.4394 20.3636 13.4381 20.2351 13.4381C18.8569 13.4381 17.5529 13.8597 16.4741 14.5996C15.409 15.3299 14.5612 16.3698 14.0756 17.6195C13.8109 18.8025 13.9088 20.1829 14.0144 21.674C14.292 25.5882 14.6197 30.211 9.23689 35.189C8.93636 35.4672 8.46475 35.4516 8.18358 35.1544C7.90247 34.8572 7.91813 34.3906 8.21865 34.1126C13.0785 29.6183 12.7773 25.3697 12.5222 21.7723C12.2662 18.1576 12.3016 15.6637 15.6256 13.3842Z" fill="url(#paint19_linear_277_2838)"/>
<path d="M26.0174 23.8419C25.9948 24.2495 25.6424 24.5617 25.2304 24.5394C24.8183 24.5171 24.5026 24.1685 24.5252 23.7609C24.6199 22.1078 24.5433 20.6325 24.2219 19.3888C23.9209 18.2246 23.4037 17.2707 22.6061 16.5759C22.2605 16.3426 21.8808 16.1614 21.4805 16.0369C21.0693 15.9089 20.636 15.8425 20.1954 15.8425C19.2192 15.8425 18.3052 16.1695 17.5756 16.7299C16.8451 17.291 16.2984 18.0857 16.0569 19.0202C15.9552 19.4165 15.5476 19.6563 15.147 19.5556C14.7463 19.455 14.5039 19.0518 14.6057 18.6555C14.9321 17.3922 15.6706 16.3183 16.6568 15.5608C17.6435 14.8028 18.8779 14.3608 20.1954 14.3608C20.7836 14.3608 21.3668 14.4509 21.9253 14.6248C22.4674 14.7935 22.9868 15.0436 23.465 15.3693C23.4979 15.3896 23.5297 15.4127 23.5599 15.4386C24.6209 16.3496 25.2957 17.5636 25.6732 19.0242C26.0331 20.417 26.1206 22.0403 26.0174 23.8419Z" fill="url(#paint20_linear_277_2838)"/>
<path d="M18.4126 38.8887C18.1186 39.1748 17.6456 39.1709 17.3564 38.8801C17.0672 38.5893 17.0712 38.1214 17.3652 37.8354C19.4199 35.8266 20.7076 32.7043 21.448 29.5567C22.561 24.8252 22.4606 20.1562 21.8648 19.0739C21.6902 18.7912 21.449 18.5637 21.1687 18.407C20.8862 18.249 20.5585 18.162 20.2147 18.162C19.8398 18.162 19.4851 18.2656 19.1863 18.4508C18.9072 18.6237 18.6721 18.8691 18.51 19.1691C18.3751 19.7704 18.4786 20.2837 18.6132 20.9513C18.8781 22.2644 19.245 24.0837 18.5045 28.041C18.4302 28.4422 18.0411 28.7078 17.6355 28.6343C17.23 28.5608 16.9614 28.1759 17.0357 27.7748C17.7223 24.1057 17.3866 22.4419 17.1444 21.2407C16.9672 20.3625 16.8326 19.6956 17.0763 18.7365C17.0926 18.6719 17.1172 18.6114 17.1484 18.5558C17.4349 17.9903 17.8709 17.5261 18.3964 17.2006C18.9347 16.867 19.5625 16.6803 20.2147 16.6803C20.8115 16.6803 21.3906 16.8371 21.9002 17.1221C22.4086 17.4064 22.8435 17.8177 23.1531 18.327L23.183 18.3814C23.8852 19.7102 24.0886 24.8606 22.905 29.8924C22.1099 33.2729 20.699 36.6534 18.4126 38.8887Z" fill="url(#paint21_linear_277_2838)"/>
<defs>
<linearGradient id="paint0_linear_277_2838" x1="30.2638" y1="5.33915" x2="1.75979" y2="20.6293" gradientUnits="userSpaceOnUse">
<stop stop-color="#B721FF"/>
<stop offset="1" stop-color="#21D4FD"/>
</linearGradient>
<linearGradient id="paint1_linear_277_2838" x1="30.2638" y1="5.33915" x2="1.75979" y2="20.6293" gradientUnits="userSpaceOnUse">
<stop stop-color="#B721FF"/>
<stop offset="1" stop-color="#21D4FD"/>
</linearGradient>
<linearGradient id="paint2_linear_277_2838" x1="30.2638" y1="5.33915" x2="1.75979" y2="20.6293" gradientUnits="userSpaceOnUse">
<stop stop-color="#B721FF"/>
<stop offset="1" stop-color="#21D4FD"/>
</linearGradient>
<linearGradient id="paint3_linear_277_2838" x1="30.2638" y1="5.33915" x2="1.75979" y2="20.6293" gradientUnits="userSpaceOnUse">
<stop stop-color="#B721FF"/>
<stop offset="1" stop-color="#21D4FD"/>
</linearGradient>
<linearGradient id="paint4_linear_277_2838" x1="30.2638" y1="5.33915" x2="1.75979" y2="20.6293" gradientUnits="userSpaceOnUse">
<stop stop-color="#B721FF"/>
<stop offset="1" stop-color="#21D4FD"/>
</linearGradient>
<linearGradient id="paint5_linear_277_2838" x1="30.2638" y1="5.33915" x2="1.75979" y2="20.6293" gradientUnits="userSpaceOnUse">
<stop stop-color="#B721FF"/>
<stop offset="1" stop-color="#21D4FD"/>
</linearGradient>
<linearGradient id="paint6_linear_277_2838" x1="30.2638" y1="5.33915" x2="1.75979" y2="20.6293" gradientUnits="userSpaceOnUse">
<stop stop-color="#B721FF"/>
<stop offset="1" stop-color="#21D4FD"/>
</linearGradient>
<linearGradient id="paint7_linear_277_2838" x1="30.2638" y1="5.33915" x2="1.75979" y2="20.6293" gradientUnits="userSpaceOnUse">
<stop stop-color="#B721FF"/>
<stop offset="1" stop-color="#21D4FD"/>
</linearGradient>
<linearGradient id="paint8_linear_277_2838" x1="30.2638" y1="5.33915" x2="1.75979" y2="20.6293" gradientUnits="userSpaceOnUse">
<stop stop-color="#B721FF"/>
<stop offset="1" stop-color="#21D4FD"/>
</linearGradient>
<linearGradient id="paint9_linear_277_2838" x1="30.2638" y1="5.33915" x2="1.75979" y2="20.6293" gradientUnits="userSpaceOnUse">
<stop stop-color="#B721FF"/>
<stop offset="1" stop-color="#21D4FD"/>
</linearGradient>
<linearGradient id="paint10_linear_277_2838" x1="30.2638" y1="5.33915" x2="1.75979" y2="20.6293" gradientUnits="userSpaceOnUse">
<stop stop-color="#B721FF"/>
<stop offset="1" stop-color="#21D4FD"/>
</linearGradient>
<linearGradient id="paint11_linear_277_2838" x1="30.2638" y1="5.33915" x2="1.75979" y2="20.6293" gradientUnits="userSpaceOnUse">
<stop stop-color="#B721FF"/>
<stop offset="1" stop-color="#21D4FD"/>
</linearGradient>
<linearGradient id="paint12_linear_277_2838" x1="30.2638" y1="5.33915" x2="1.75979" y2="20.6293" gradientUnits="userSpaceOnUse">
<stop stop-color="#B721FF"/>
<stop offset="1" stop-color="#21D4FD"/>
</linearGradient>
<linearGradient id="paint13_linear_277_2838" x1="30.2638" y1="5.33915" x2="1.75979" y2="20.6293" gradientUnits="userSpaceOnUse">
<stop stop-color="#B721FF"/>
<stop offset="1" stop-color="#21D4FD"/>
</linearGradient>
<linearGradient id="paint14_linear_277_2838" x1="30.2638" y1="5.33915" x2="1.75979" y2="20.6293" gradientUnits="userSpaceOnUse">
<stop stop-color="#B721FF"/>
<stop offset="1" stop-color="#21D4FD"/>
</linearGradient>
<linearGradient id="paint15_linear_277_2838" x1="30.2638" y1="5.33915" x2="1.75979" y2="20.6293" gradientUnits="userSpaceOnUse">
<stop stop-color="#B721FF"/>
<stop offset="1" stop-color="#21D4FD"/>
</linearGradient>
<linearGradient id="paint16_linear_277_2838" x1="30.2638" y1="5.33915" x2="1.75979" y2="20.6293" gradientUnits="userSpaceOnUse">
<stop stop-color="#B721FF"/>
<stop offset="1" stop-color="#21D4FD"/>
</linearGradient>
<linearGradient id="paint17_linear_277_2838" x1="30.2638" y1="5.33915" x2="1.75979" y2="20.6293" gradientUnits="userSpaceOnUse">
<stop stop-color="#B721FF"/>
<stop offset="1" stop-color="#21D4FD"/>
</linearGradient>
<linearGradient id="paint18_linear_277_2838" x1="30.2638" y1="5.33915" x2="1.75979" y2="20.6293" gradientUnits="userSpaceOnUse">
<stop stop-color="#B721FF"/>
<stop offset="1" stop-color="#21D4FD"/>
</linearGradient>
<linearGradient id="paint19_linear_277_2838" x1="30.2638" y1="5.33915" x2="1.75979" y2="20.6293" gradientUnits="userSpaceOnUse">
<stop stop-color="#B721FF"/>
<stop offset="1" stop-color="#21D4FD"/>
</linearGradient>
<linearGradient id="paint20_linear_277_2838" x1="30.2638" y1="5.33915" x2="1.75979" y2="20.6293" gradientUnits="userSpaceOnUse">
<stop stop-color="#B721FF"/>
<stop offset="1" stop-color="#21D4FD"/>
</linearGradient>
<linearGradient id="paint21_linear_277_2838" x1="30.2638" y1="5.33915" x2="1.75979" y2="20.6293" gradientUnits="userSpaceOnUse">
<stop stop-color="#B721FF"/>
<stop offset="1" stop-color="#21D4FD"/>
</linearGradient>
</defs>
</svg>